<svg width="1280" height="886" viewBox="0 0 1280 886" fill="none" xmlns="http://www.w3.org/2000/svg">
<rect width="1280" height="885" fill="url(#paint0_radial_74_4887)"/>
<rect width="1440" height="885.34" fill="url(#paint1_radial_74_4887)"/>
<g opacity="0.5" clip-path="url(#clip0_74_4887)">
<g clip-path="url(#clip1_74_4887)">
<g clip-path="url(#clip2_74_4887)">
<g clip-path="url(#clip3_74_4887)">
<mask id="mask0_74_4887" style="mask-type:luminance" maskUnits="userSpaceOnUse" x="0" y="-169" width="1440" height="764">
<path d="M0 -168.754H1440V594.754H0V-168.754Z" fill="white"/>
</mask>
<g mask="url(#mask0_74_4887)">
<g style="mix-blend-mode:hard-light">
<path d="M339.798 254.956H252.949V341.806H339.798V254.956Z" fill="url(#paint2_linear_74_4887)" fill-opacity="0.02"/>
<path d="M84.6793 -421.386H0V-336.707M84.6793 -421.386V-336.707M84.6793 -421.386H169.356M0 -336.707H84.6793M0 -336.707V-252.03M84.6793 -336.707H169.356M84.6793 -336.707V-252.03M169.356 -421.386V-336.707M169.356 -421.386H254.035M169.356 -336.707H254.035M169.356 -336.707V-252.03M84.6793 -252.03H0M84.6793 -252.03H169.356M84.6793 -252.03V-167.351M0 -252.03V-167.351M254.035 -421.386V-336.707M254.035 -421.386H338.714M254.035 -336.707H338.714M254.035 -336.707V-252.03M169.356 -252.03H254.035M169.356 -252.03V-167.351M338.714 -421.386V-336.707M338.714 -421.386H423.391M338.714 -336.707H423.391M338.714 -336.707V-252.03M254.035 -252.03H338.714M254.035 -252.03V-167.351M423.391 -421.386V-336.707M423.391 -421.386H508.07M423.391 -336.707H508.07M423.391 -336.707V-252.03M338.714 -252.03H423.391M338.714 -252.03V-167.351M508.07 -421.386V-336.707M508.07 -421.386H592.749M508.07 -336.707H592.749M508.07 -336.707V-252.03M423.391 -252.03H508.07M423.391 -252.03V-167.351M592.749 -421.386V-336.707M592.749 -421.386H677.426M592.749 -336.707H677.426M592.749 -336.707V-252.03M508.07 -252.03H592.749M508.07 -252.03V-167.351M677.426 -421.386V-336.707M677.426 -421.386H762.105M677.426 -336.707H762.105M677.426 -336.707V-252.03M592.749 -252.03H677.426M592.749 -252.03V-167.351M762.105 -421.386V-336.707M762.105 -421.386H846.785M762.105 -336.707H846.785M762.105 -336.707V-252.03M677.426 -252.03H762.105M677.426 -252.03V-167.351M846.785 -421.386V-336.707M846.785 -421.386H931.461M846.785 -336.707H931.461M846.785 -336.707V-252.03M762.105 -252.03H846.785M762.105 -252.03V-167.351M931.461 -421.386V-336.707M931.461 -421.386H1016.14M931.461 -336.707H1016.14M931.461 -336.707V-252.03M846.785 -252.03H931.461M846.785 -252.03V-167.351M1016.14 -421.386V-336.707M1016.14 -421.386H1100.82M1016.14 -336.707H1100.82M1016.14 -336.707V-252.03M931.461 -252.03H1016.14M931.461 -252.03V-167.351M1100.82 -421.386V-336.707M1100.82 -421.386H1185.5M1100.82 -336.707H1185.5M1100.82 -336.707V-252.03M1016.14 -252.03H1100.82M1016.14 -252.03V-167.351M1185.5 -421.386V-336.707M1185.5 -421.386H1270.18M1185.5 -336.707H1270.18M1185.5 -336.707V-252.03M1100.82 -252.03H1185.5M1100.82 -252.03V-167.351M1270.18 -421.386V-336.707M1270.18 -421.386H1354.85M1270.18 -336.707H1354.85M1270.18 -336.707V-252.03M1185.5 -252.03H1270.18M1185.5 -252.03V-167.351M1354.85 -421.386V-336.707M1354.85 -421.386H1439.53V-336.707M1354.85 -336.707H1439.53M1354.85 -336.707V-252.03M1270.18 -252.03H1354.85M1270.18 -252.03V-167.351M1439.53 -336.707V-252.03M1354.85 -252.03H1439.53M1354.85 -252.03V-167.351M1439.53 -252.03V-167.351M84.6793 -167.351H0M84.6793 -167.351H169.356M84.6793 -167.351V-82.6716M0 -167.351V-82.6716M169.356 -167.351H254.035M169.356 -167.351V-82.6716M254.035 -167.351H338.714M254.035 -167.351V-82.6716M338.714 -167.351H423.391M338.714 -167.351V-82.6716M423.391 -167.351H508.07M423.391 -167.351V-82.6716M508.07 -167.351H592.749M508.07 -167.351V-82.6716M592.749 -167.351H677.426M592.749 -167.351V-82.6716M677.426 -167.351H762.105M677.426 -167.351V-82.6716M762.105 -167.351H846.785M762.105 -167.351V-82.6716M846.785 -167.351H931.461M846.785 -167.351V-82.6716M931.461 -167.351H1016.14M931.461 -167.351V-82.6716M1016.14 -167.351H1100.82M1016.14 -167.351V-82.6716M1100.82 -167.351H1185.5M1100.82 -167.351V-82.6716M1185.5 -167.351H1270.18M1185.5 -167.351V-82.6716M1270.18 -167.351H1354.85M1270.18 -167.351V-82.6716M1354.85 -167.351H1439.53M1354.85 -167.351V-82.6716M1439.53 -167.351V-82.6716M84.6793 -82.6716H0M84.6793 -82.6716H169.356M84.6793 -82.6716V2.00489M0 -82.6716V2.00489M169.356 -82.6716H254.035M169.356 -82.6716V2.00489M254.035 -82.6716H338.714M254.035 -82.6716V2.00489M338.714 -82.6716H423.391M338.714 -82.6716V2.00489M423.391 -82.6716H508.07M423.391 -82.6716V2.00489M508.07 -82.6716H592.749M508.07 -82.6716V2.00489M592.749 -82.6716H677.426M592.749 -82.6716V2.00489M677.426 -82.6716H762.105M677.426 -82.6716V2.00489M762.105 -82.6716H846.785M762.105 -82.6716V2.00489M846.785 -82.6716H931.461M846.785 -82.6716V2.00489M931.461 -82.6716H1016.14M931.461 -82.6716V2.00489M1016.14 -82.6716H1100.82M1016.14 -82.6716V2.00489M1100.82 -82.6716H1185.5M1100.82 -82.6716V2.00489M1185.5 -82.6716H1270.18M1185.5 -82.6716V2.00489M1270.18 -82.6716H1354.85M1270.18 -82.6716V2.00489M1354.85 -82.6716H1439.53M1354.85 -82.6716V2.00489M1439.53 -82.6716V2.00489M84.6793 2.00489H0M84.6793 2.00489H169.356M84.6793 2.00489V86.6842M0 2.00489V86.6842M169.356 2.00489H254.035M169.356 2.00489V86.6842M254.035 2.00489H338.714M254.035 2.00489V86.6842M338.714 2.00489H423.391M338.714 2.00489V86.6842M423.391 2.00489H508.07M423.391 2.00489V86.6842M508.07 2.00489H592.749M508.07 2.00489V86.6842M592.749 2.00489H677.426M592.749 2.00489V86.6842M677.426 2.00489H762.105M677.426 2.00489V86.6842M762.105 2.00489H846.785M762.105 2.00489V86.6842M846.785 2.00489H931.461M846.785 2.00489V86.6842M931.461 2.00489H1016.14M931.461 2.00489V86.6842M1016.14 2.00489H1100.82M1016.14 2.00489V86.6842M1100.82 2.00489H1185.5M1100.82 2.00489V86.6842M1185.5 2.00489H1270.18M1185.5 2.00489V86.6842M1270.18 2.00489H1354.85M1270.18 2.00489V86.6842M1354.85 2.00489H1439.53M1354.85 2.00489V86.6842M1439.53 2.00489V86.6842M84.6793 86.6842H0M84.6793 86.6842H169.356M84.6793 86.6842V171.363M0 86.6842V171.363M169.356 86.6842H254.035M169.356 86.6842V171.363M254.035 86.6842H338.714M254.035 86.6842V171.363M338.714 86.6842H423.391M338.714 86.6842V171.363M423.391 86.6842H508.07M423.391 86.6842V171.363M508.07 86.6842H592.749M508.07 86.6842V171.363M592.749 86.6842H677.426M592.749 86.6842V171.363M677.426 86.6842H762.105M677.426 86.6842V171.363M762.105 86.6842H846.785M762.105 86.6842V171.363M846.785 86.6842H931.461M846.785 86.6842V171.363M931.461 86.6842H1016.14M931.461 86.6842V171.363M1016.14 86.6842H1100.82M1016.14 86.6842V171.363M1100.82 86.6842H1185.5M1100.82 86.6842V171.363M1185.5 86.6842H1270.18M1185.5 86.6842V171.363M1270.18 86.6842H1354.85M1270.18 86.6842V171.363M1354.85 86.6842H1439.53M1354.85 86.6842V171.363M1439.53 86.6842V171.363M84.6793 171.363H0M84.6793 171.363H169.356M84.6793 171.363V256.04M0 171.363V256.04M169.356 171.363H254.035M169.356 171.363V256.04M254.035 171.363H338.714M254.035 171.363V256.04M338.714 171.363H423.391M338.714 171.363V256.04M423.391 171.363H508.07M423.391 171.363V256.04M508.07 171.363H592.749M508.07 171.363V256.04M592.749 171.363H677.426M592.749 171.363V256.04M677.426 171.363H762.105M677.426 171.363V256.04M762.105 171.363H846.785M762.105 171.363V256.04M846.785 171.363H931.461M846.785 171.363V256.04M931.461 171.363H1016.14M931.461 171.363V256.04M1016.14 171.363H1100.82M1016.14 171.363V256.04M1100.82 171.363H1185.5M1100.82 171.363V256.04M1185.5 171.363H1270.18M1185.5 171.363V256.04M1270.18 171.363H1354.85M1270.18 171.363V256.04M1354.85 171.363H1439.53M1354.85 171.363V256.04M1439.53 171.363V256.04M84.6793 256.04H0M84.6793 256.04H169.356M84.6793 256.04V340.719M0 256.04V340.719M169.356 256.04H254.035M169.356 256.04V340.719M254.035 256.04H338.714M254.035 256.04V340.719M338.714 256.04H423.391M338.714 256.04V340.719M423.391 256.04H508.07M423.391 256.04V340.719M508.07 256.04H592.749M508.07 256.04V340.719M592.749 256.04H677.426M592.749 256.04V340.719M677.426 256.04H762.105M677.426 256.04V340.719M762.105 256.04H846.785M762.105 256.04V340.719M846.785 256.04H931.461M846.785 256.04V340.719M931.461 256.04H1016.14M931.461 256.04V340.719M1016.14 256.04H1100.82M1016.14 256.04V340.719M1100.82 256.04H1185.5M1100.82 256.04V340.719M1185.5 256.04H1270.18M1185.5 256.04V340.719M1270.18 256.04H1354.85M1270.18 256.04V340.719M1354.85 256.04H1439.53M1354.85 256.04V340.719M1439.53 256.04V340.719M84.6793 340.719H0M84.6793 340.719H169.356M84.6793 340.719V425.399M0 340.719V425.399M169.356 340.719H254.035M169.356 340.719V425.399M254.035 340.719H338.714M254.035 340.719V425.399M338.714 340.719H423.391M338.714 340.719V425.399M423.391 340.719H508.07M423.391 340.719V425.399M508.07 340.719H592.749M508.07 340.719V425.399M592.749 340.719H677.426M592.749 340.719V425.399M677.426 340.719H762.105M677.426 340.719V425.399M762.105 340.719H846.785M762.105 340.719V425.399M846.785 340.719H931.461M846.785 340.719V425.399M931.461 340.719H1016.14M931.461 340.719V425.399M1016.14 340.719H1100.82M1016.14 340.719V425.399M1100.82 340.719H1185.5M1100.82 340.719V425.399M1185.5 340.719H1270.18M1185.5 340.719V425.399M1270.18 340.719H1354.85M1270.18 340.719V425.399M1354.85 340.719H1439.53M1354.85 340.719V425.399M1439.53 340.719V425.399M84.6793 425.399H0M84.6793 425.399H169.356M84.6793 425.399V510.075M0 425.399V510.075M169.356 425.399H254.035M169.356 425.399V510.075M254.035 425.399H338.714M254.035 425.399V510.075M338.714 425.399H423.391M338.714 425.399V510.075M423.391 425.399H508.07M423.391 425.399V510.075M508.07 425.399H592.749M508.07 425.399V510.075M592.749 425.399H677.426M592.749 425.399V510.075M677.426 425.399H762.105M677.426 425.399V510.075M762.105 425.399H846.785M762.105 425.399V510.075M846.785 425.399H931.461M846.785 425.399V510.075M931.461 425.399H1016.14M931.461 425.399V510.075M1016.14 425.399H1100.82M1016.14 425.399V510.075M1100.82 425.399H1185.5M1100.82 425.399V510.075M1185.5 425.399H1270.18M1185.5 425.399V510.075M1270.18 425.399H1354.85M1270.18 425.399V510.075M1354.85 425.399H1439.53M1354.85 425.399V510.075M1439.53 425.399V510.075M84.6793 510.075H0M84.6793 510.075H169.356M84.6793 510.075V594.754M0 510.075V594.754H84.6793M169.356 510.075H254.035M169.356 510.075V594.754M254.035 510.075H338.714M254.035 510.075V594.754M338.714 510.075H423.391M338.714 510.075V594.754M423.391 510.075H508.07M423.391 510.075V594.754M508.07 510.075H592.749M508.07 510.075V594.754M592.749 510.075H677.426M592.749 510.075V594.754M677.426 510.075H762.105M677.426 510.075V594.754M762.105 510.075H846.785M762.105 510.075V594.754M846.785 510.075H931.461M846.785 510.075V594.754M931.461 510.075H1016.14M931.461 510.075V594.754M1016.14 510.075H1100.82M1016.14 510.075V594.754M1100.82 510.075H1185.5M1100.82 510.075V594.754M1185.5 510.075H1270.18M1185.5 510.075V594.754M1270.18 510.075H1354.85M1270.18 510.075V594.754M1354.85 510.075H1439.53M1354.85 510.075V594.754M1439.53 510.075V594.754H1354.85M84.6793 594.754H169.356M169.356 594.754H254.035M254.035 594.754H338.714M338.714 594.754H423.391M423.391 594.754H508.07M508.07 594.754H592.749M592.749 594.754H677.426M677.426 594.754H762.105M762.105 594.754H846.785M846.785 594.754H931.461M931.461 594.754H1016.14M1016.14 594.754H1100.82M1100.82 594.754H1185.5M1185.5 594.754H1270.18M1270.18 594.754H1354.85" stroke="url(#paint3_radial_74_4887)" stroke-opacity="0.08" stroke-width="2.80702"/>
</g>
</g>
</g>
</g>
</g>
</g>
<defs>
<radialGradient id="paint0_radial_74_4887" cx="0" cy="0" r="1" gradientUnits="userSpaceOnUse" gradientTransform="translate(640 66.375) scale(1024 221.25)">
<stop stop-color="#4DA2FF" stop-opacity="0.4"/>
<stop offset="1"/>
</radialGradient>
<radialGradient id="paint1_radial_74_4887" cx="0" cy="0" r="1" gradientUnits="userSpaceOnUse" gradientTransform="translate(720) scale(1051.2 690.565)">
<stop stop-opacity="0"/>
<stop offset="0.752812"/>
</radialGradient>
<linearGradient id="paint2_linear_74_4887" x1="296.373" y1="254.956" x2="296.373" y2="341.806" gradientUnits="userSpaceOnUse">
<stop stop-color="white" stop-opacity="0"/>
<stop offset="1" stop-color="white"/>
</linearGradient>
<radialGradient id="paint3_radial_74_4887" cx="0" cy="0" r="1" gradientUnits="userSpaceOnUse" gradientTransform="translate(720.13 113.873) rotate(90) scale(479.843 720.851)">
<stop stop-color="white"/>
<stop offset="1" stop-color="white" stop-opacity="0"/>
</radialGradient>
<clipPath id="clip0_74_4887">
<rect width="1440" height="426" fill="white"/>
</clipPath>
<clipPath id="clip1_74_4887">
<rect width="1440" height="426" fill="white"/>
</clipPath>
<clipPath id="clip2_74_4887">
<rect width="1440" height="426" fill="white"/>
</clipPath>
<clipPath id="clip3_74_4887">
<rect width="1440" height="763.509" fill="white" transform="translate(0 -168.754)"/>
</clipPath>
</defs>
</svg>
