<svg width="188" height="51" viewBox="0 0 188 51" fill="none" xmlns="http://www.w3.org/2000/svg">
<rect x="1" y="1" width="186" height="48.59" rx="24.295" fill="url(#paint0_radial_74_5157)"/>
<rect x="1" y="1" width="186" height="48.59" rx="24.295" stroke="url(#paint1_linear_74_5157)"/>
<path d="M29.38 30.5H25.892V19.044H29.348C32.804 19.044 35.108 21.348 35.108 24.772C35.108 28.196 32.82 30.5 29.38 30.5ZM29.3 20.1H27.044V29.444H29.332C32.132 29.444 33.924 27.62 33.924 24.772C33.924 21.908 32.132 20.1 29.3 20.1ZM36.4158 30.5H35.2478L39.4558 19.044H40.8798L45.1358 30.5H43.9358L42.8158 27.46H37.5358L36.4158 30.5ZM40.0158 20.66L37.8878 26.452H42.4478L40.3038 20.66C40.2558 20.5 40.1758 20.308 40.1598 20.196C40.1438 20.292 40.0798 20.5 40.0158 20.66ZM56.1631 24.772C56.1631 28.244 53.9071 30.692 50.7071 30.692C47.4911 30.692 45.2511 28.244 45.2511 24.772C45.2511 21.3 47.5071 18.836 50.7071 18.836C53.9231 18.836 56.1631 21.284 56.1631 24.772ZM54.9791 24.772C54.9791 21.908 53.2351 19.956 50.7071 19.956C48.1791 19.956 46.4511 21.908 46.4511 24.772C46.4511 27.636 48.1791 29.588 50.7071 29.588C53.2351 29.588 54.9791 27.62 54.9791 24.772ZM57.036 28.324H58.092C58.092 29.22 58.764 29.78 59.852 29.78C61.052 29.78 61.756 29.268 61.756 28.436C61.756 27.796 61.436 27.428 60.524 27.204L59.196 26.868C57.852 26.532 57.196 25.828 57.196 24.772C57.196 23.412 58.332 22.548 59.996 22.548C61.628 22.548 62.684 23.444 62.732 24.884H61.66C61.628 23.988 61.004 23.46 59.964 23.46C58.876 23.46 58.268 23.924 58.268 24.756C58.268 25.348 58.684 25.764 59.532 25.972L60.86 26.308C62.204 26.644 62.812 27.268 62.812 28.388C62.812 29.78 61.628 30.692 59.868 30.692C58.124 30.692 57.036 29.764 57.036 28.324ZM76.1826 30.5L75.1586 29.316C74.2626 30.212 73.0146 30.708 71.5106 30.708C69.0946 30.708 67.5266 29.476 67.5266 27.588C67.5266 26.132 68.3906 25.06 70.4546 23.94C69.4146 22.724 68.9986 22.036 68.9986 21.188C68.9986 19.812 70.0386 18.852 71.5906 18.852C73.0626 18.852 74.0706 19.748 74.0706 21.092C74.0706 22.228 73.4786 23.108 71.9586 24.132L75.0786 27.732C75.3986 27.06 75.5746 26.228 75.5746 25.268H76.6466C76.6466 26.548 76.3426 27.652 75.7826 28.532L77.4946 30.5H76.1826ZM71.3666 23.444L71.3826 23.46C72.5026 22.756 73.0146 22.02 73.0146 21.124C73.0146 20.292 72.4706 19.78 71.5746 19.78C70.6466 19.78 70.0706 20.324 70.0706 21.188C70.0706 21.764 70.3266 22.244 71.3666 23.444ZM68.6626 27.524C68.6626 28.916 69.7506 29.748 71.5746 29.748C72.8386 29.748 73.8306 29.348 74.5186 28.58L71.0306 24.596C69.3026 25.556 68.6626 26.356 68.6626 27.524ZM87.0457 19.94C84.4057 19.94 82.7417 21.892 82.7417 24.82C82.7417 27.796 84.5017 29.604 87.0777 29.604C88.9977 29.604 90.8697 28.676 90.8697 25.924V25.332H86.7257V24.308H91.9577V30.516H91.0457L90.9337 28.692C90.3257 29.828 88.8857 30.692 87.0297 30.692C83.7817 30.692 81.5417 28.356 81.5417 24.82C81.5417 21.316 83.7817 18.852 87.0617 18.852C89.4777 18.852 91.3497 20.228 91.7977 22.308H90.5497C90.0697 20.74 88.7257 19.94 87.0457 19.94ZM93.1418 26.628C93.1418 24.26 94.8058 22.548 97.0778 22.548C99.3498 22.548 101.014 24.26 101.014 26.628C101.014 28.98 99.3498 30.692 97.0778 30.692C94.8058 30.692 93.1418 28.98 93.1418 26.628ZM94.2618 26.612C94.2618 28.436 95.4138 29.7 97.0778 29.7C98.7258 29.7 99.8938 28.436 99.8938 26.612C99.8938 24.82 98.7258 23.54 97.0778 23.54C95.4138 23.54 94.2618 24.82 94.2618 26.612ZM104.276 30.5L101.108 22.756H102.292L104.292 27.748C104.5 28.308 104.708 28.836 104.852 29.348C104.996 28.82 105.204 28.308 105.428 27.748L107.46 22.756H108.596L105.38 30.5H104.276ZM112.481 30.692C110.209 30.692 108.689 29.06 108.689 26.628C108.689 24.212 110.193 22.548 112.401 22.548C114.497 22.548 115.921 24.036 115.921 26.228V26.772H109.761C109.841 28.66 110.833 29.748 112.497 29.748C113.761 29.748 114.577 29.204 114.865 28.18H115.921C115.505 29.812 114.305 30.692 112.481 30.692ZM112.401 23.492C110.945 23.492 109.985 24.452 109.793 25.972H114.817C114.817 24.484 113.857 23.492 112.401 23.492ZM121.414 22.66V23.652H120.806C119.382 23.652 118.47 24.612 118.47 26.084V30.5H117.366V22.756H118.406L118.486 23.956C118.79 23.124 119.606 22.58 120.694 22.58C120.934 22.58 121.142 22.596 121.414 22.66ZM123.666 30.5H122.562V22.756H123.522L123.682 24.1C124.194 23.108 125.218 22.548 126.338 22.548C128.466 22.548 129.346 23.812 129.346 25.764V30.5H128.242V26.004C128.242 24.196 127.426 23.556 126.146 23.556C124.562 23.556 123.666 24.708 123.666 26.452V30.5ZM133.45 30.692C131.802 30.692 130.826 29.764 130.826 28.404C130.826 26.98 131.914 26.084 133.722 25.94L136.282 25.732V25.476C136.282 23.956 135.37 23.476 134.234 23.476C132.89 23.476 132.09 24.084 132.09 25.124H131.082C131.082 23.556 132.362 22.548 134.266 22.548C136.058 22.548 137.37 23.444 137.37 25.492V30.5H136.442L136.298 29.14C135.818 30.116 134.762 30.692 133.45 30.692ZM133.706 29.796C135.338 29.796 136.282 28.66 136.282 26.98V26.564L133.994 26.74C132.538 26.868 131.946 27.508 131.946 28.372C131.946 29.316 132.65 29.796 133.706 29.796ZM140.37 30.5H139.266V22.756H140.226L140.386 24.1C140.898 23.108 141.922 22.548 143.042 22.548C145.17 22.548 146.05 23.812 146.05 25.764V30.5H144.946V26.004C144.946 24.196 144.13 23.556 142.85 23.556C141.266 23.556 140.37 24.708 140.37 26.452V30.5ZM147.386 26.644C147.386 24.212 148.874 22.548 151.13 22.548C152.922 22.548 154.234 23.588 154.538 25.188H153.434C153.146 24.116 152.218 23.524 151.146 23.524C149.578 23.524 148.474 24.724 148.474 26.628C148.474 28.468 149.498 29.7 151.066 29.7C152.218 29.7 153.146 29.06 153.45 28.068H154.57C154.202 29.652 152.826 30.692 151.066 30.692C148.874 30.692 147.386 29.076 147.386 26.644ZM159.171 30.692C156.899 30.692 155.379 29.06 155.379 26.628C155.379 24.212 156.883 22.548 159.091 22.548C161.187 22.548 162.611 24.036 162.611 26.228V26.772H156.451C156.531 28.66 157.523 29.748 159.187 29.748C160.451 29.748 161.267 29.204 161.555 28.18H162.611C162.195 29.812 160.995 30.692 159.171 30.692ZM159.091 23.492C157.635 23.492 156.675 24.452 156.483 25.972H161.507C161.507 24.484 160.547 23.492 159.091 23.492Z" fill="#E6ECFF" fill-opacity="0.7"/>
<defs>
<radialGradient id="paint0_radial_74_5157" cx="0" cy="0" r="1" gradientUnits="userSpaceOnUse" gradientTransform="translate(25.184 2.33483) scale(181.39 57.0285)">
<stop stop-color="#121426" stop-opacity="0.8"/>
<stop offset="1" stop-opacity="0.8"/>
</radialGradient>
<linearGradient id="paint1_linear_74_5157" x1="94" y1="0.5" x2="94" y2="50.09" gradientUnits="userSpaceOnUse">
<stop stop-color="white" stop-opacity="0.5"/>
<stop offset="1" stop-color="#999999" stop-opacity="0.07"/>
</linearGradient>
</defs>
</svg>
