<svg width="80" height="51" viewBox="0 0 80 51" fill="none" xmlns="http://www.w3.org/2000/svg">
<rect x="1" y="1" width="78" height="48.59" rx="24.295" fill="url(#paint0_radial_74_5127)"/>
<rect x="1" y="1" width="78" height="48.59" rx="24.295" stroke="url(#paint1_linear_74_5127)"/>
<path d="M29.38 30.5H25.892V19.044H29.348C32.804 19.044 35.108 21.348 35.108 24.772C35.108 28.196 32.82 30.5 29.38 30.5ZM29.3 20.1H27.044V29.444H29.332C32.132 29.444 33.924 27.62 33.924 24.772C33.924 21.908 32.132 20.1 29.3 20.1ZM39.8769 30.692C37.6049 30.692 36.0849 29.06 36.0849 26.628C36.0849 24.212 37.5889 22.548 39.7969 22.548C41.8929 22.548 43.3169 24.036 43.3169 26.228V26.772H37.1569C37.2369 28.66 38.2289 29.748 39.8929 29.748C41.1569 29.748 41.9729 29.204 42.2609 28.18H43.3169C42.9009 29.812 41.7009 30.692 39.8769 30.692ZM39.7969 23.492C38.3409 23.492 37.3809 24.452 37.1889 25.972H42.2129C42.2129 24.484 41.2529 23.492 39.7969 23.492ZM50.842 25.46H46.154V30.5H45.002V19.044H51.754V20.1H46.154V24.42H50.842V25.46ZM53.6735 20.628C53.2255 20.628 52.8575 20.26 52.8575 19.812C52.8575 19.364 53.2255 18.98 53.6735 18.98C54.1215 18.98 54.5055 19.364 54.5055 19.812C54.5055 20.26 54.1215 20.628 53.6735 20.628ZM53.1295 30.5V22.756H54.2335V30.5H53.1295Z" fill="#E6ECFF" fill-opacity="0.7"/>
<defs>
<radialGradient id="paint0_radial_74_5127" cx="0" cy="0" r="1" gradientUnits="userSpaceOnUse" gradientTransform="translate(10.928 2.33483) scale(76.63 57.0285)">
<stop stop-color="#121426" stop-opacity="0.8"/>
<stop offset="1" stop-opacity="0.8"/>
</radialGradient>
<linearGradient id="paint1_linear_74_5127" x1="40" y1="0.5" x2="40" y2="50.09" gradientUnits="userSpaceOnUse">
<stop stop-color="white" stop-opacity="0.5"/>
<stop offset="1" stop-color="#999999" stop-opacity="0.07"/>
</linearGradient>
</defs>
</svg>
