<svg width="138" height="51" viewBox="0 0 138 51" fill="none" xmlns="http://www.w3.org/2000/svg">
<rect x="1" y="1" width="136" height="48.59" rx="24.295" fill="url(#paint0_radial_74_5139)"/>
<rect x="1" y="1" width="136" height="48.59" rx="24.295" stroke="url(#paint1_linear_74_5139)"/>
<path d="M27.044 19.044V30.5H25.892V19.044H27.044ZM30.3735 30.5H29.2695V22.756H30.2295L30.3895 24.1C30.9015 23.108 31.9255 22.548 33.0455 22.548C35.1735 22.548 36.0535 23.812 36.0535 25.764V30.5H34.9495V26.004C34.9495 24.196 34.1335 23.556 32.8535 23.556C31.2695 23.556 30.3735 24.708 30.3735 26.452V30.5ZM37.0699 22.756H38.2539V21.252C38.2539 19.508 39.2139 18.836 40.3979 18.836C40.6699 18.836 40.9899 18.852 41.2459 18.9V19.844H40.5899C39.6139 19.844 39.3579 20.34 39.3579 21.252V22.756H41.1819V23.684H39.3579V30.5H38.2539V23.684H37.0699V22.756ZM46.4119 22.66V23.652H45.8039C44.3799 23.652 43.4679 24.612 43.4679 26.084V30.5H42.3639V22.756H43.4039L43.4839 23.956C43.7879 23.124 44.6039 22.58 45.6919 22.58C45.9319 22.58 46.1399 22.596 46.4119 22.66ZM49.471 30.692C47.823 30.692 46.847 29.764 46.847 28.404C46.847 26.98 47.935 26.084 49.743 25.94L52.303 25.732V25.476C52.303 23.956 51.391 23.476 50.255 23.476C48.911 23.476 48.111 24.084 48.111 25.124H47.103C47.103 23.556 48.383 22.548 50.287 22.548C52.079 22.548 53.391 23.444 53.391 25.492V30.5H52.463L52.319 29.14C51.839 30.116 50.783 30.692 49.471 30.692ZM49.727 29.796C51.359 29.796 52.303 28.66 52.303 26.98V26.564L50.015 26.74C48.559 26.868 47.967 27.508 47.967 28.372C47.967 29.316 48.671 29.796 49.727 29.796ZM54.6304 28.324H55.6864C55.6864 29.22 56.3584 29.78 57.4464 29.78C58.6464 29.78 59.3504 29.268 59.3504 28.436C59.3504 27.796 59.0304 27.428 58.1184 27.204L56.7904 26.868C55.4464 26.532 54.7904 25.828 54.7904 24.772C54.7904 23.412 55.9264 22.548 57.5904 22.548C59.2224 22.548 60.2784 23.444 60.3264 24.884H59.2544C59.2224 23.988 58.5984 23.46 57.5584 23.46C56.4704 23.46 55.8624 23.924 55.8624 24.756C55.8624 25.348 56.2784 25.764 57.1264 25.972L58.4544 26.308C59.7984 26.644 60.4064 27.268 60.4064 28.388C60.4064 29.78 59.2224 30.692 57.4624 30.692C55.7184 30.692 54.6304 29.764 54.6304 28.324ZM63.6799 30.5H62.5919V23.684H61.0399V22.756H62.5919V20.308H63.6799V22.756H65.2319V23.684H63.6799V30.5ZM70.3975 22.66V23.652H69.7895C68.3655 23.652 67.4535 24.612 67.4535 26.084V30.5H66.3495V22.756H67.3895L67.4695 23.956C67.7735 23.124 68.5895 22.58 69.6775 22.58C69.9175 22.58 70.1255 22.596 70.3975 22.66ZM76.9851 22.756H78.0891V30.5H77.1291L76.9851 29.188C76.5531 30.084 75.4811 30.692 74.2651 30.692C72.4411 30.692 71.4491 29.444 71.4491 27.556V22.74H72.5691V27.204C72.5691 29.044 73.3851 29.7 74.6171 29.7C76.1051 29.7 76.9851 28.708 76.9851 26.868V22.756ZM79.3686 26.644C79.3686 24.212 80.8566 22.548 83.1126 22.548C84.9046 22.548 86.2166 23.588 86.5206 25.188H85.4166C85.1286 24.116 84.2006 23.524 83.1286 23.524C81.5606 23.524 80.4566 24.724 80.4566 26.628C80.4566 28.468 81.4806 29.7 83.0486 29.7C84.2006 29.7 85.1286 29.06 85.4326 28.068H86.5526C86.1846 29.652 84.8086 30.692 83.0486 30.692C80.8566 30.692 79.3686 29.076 79.3686 26.644ZM89.6811 30.5H88.5931V23.684H87.0411V22.756H88.5931V20.308H89.6811V22.756H91.2331V23.684H89.6811V30.5ZM97.7908 22.756H98.8948V30.5H97.9348L97.7908 29.188C97.3588 30.084 96.2868 30.692 95.0708 30.692C93.2468 30.692 92.2548 29.444 92.2548 27.556V22.74H93.3748V27.204C93.3748 29.044 94.1908 29.7 95.4228 29.7C96.9108 29.7 97.7908 28.708 97.7908 26.868V22.756ZM104.923 22.66V23.652H104.315C102.891 23.652 101.979 24.612 101.979 26.084V30.5H100.875V22.756H101.915L101.995 23.956C102.299 23.124 103.115 22.58 104.203 22.58C104.443 22.58 104.651 22.596 104.923 22.66ZM109.021 30.692C106.749 30.692 105.229 29.06 105.229 26.628C105.229 24.212 106.733 22.548 108.941 22.548C111.037 22.548 112.461 24.036 112.461 26.228V26.772H106.301C106.381 28.66 107.373 29.748 109.037 29.748C110.301 29.748 111.117 29.204 111.405 28.18H112.461C112.045 29.812 110.845 30.692 109.021 30.692ZM108.941 23.492C107.485 23.492 106.525 24.452 106.333 25.972H111.357C111.357 24.484 110.397 23.492 108.941 23.492Z" fill="#E6ECFF" fill-opacity="0.7"/>
<defs>
<radialGradient id="paint0_radial_74_5139" cx="0" cy="0" r="1" gradientUnits="userSpaceOnUse" gradientTransform="translate(18.584 2.33483) scale(132.89 57.0285)">
<stop stop-color="#121426" stop-opacity="0.8"/>
<stop offset="1" stop-opacity="0.8"/>
</radialGradient>
<linearGradient id="paint1_linear_74_5139" x1="69" y1="0.5" x2="69" y2="50.09" gradientUnits="userSpaceOnUse">
<stop stop-color="white" stop-opacity="0.5"/>
<stop offset="1" stop-color="#999999" stop-opacity="0.07"/>
</linearGradient>
</defs>
</svg>
