<svg width="126" height="51" viewBox="0 0 126 51" fill="none" xmlns="http://www.w3.org/2000/svg">
<rect x="1" y="1" width="124" height="48.59" rx="24.295" fill="url(#paint0_radial_100_987)"/>
<rect x="1" y="1" width="124" height="48.59" rx="24.295" stroke="url(#paint1_linear_100_987)"/>
<path d="M27.044 19.044V29.444H32.308V30.5H25.892V19.044H27.044ZM35.6966 30.692C34.0486 30.692 33.0726 29.764 33.0726 28.404C33.0726 26.98 34.1606 26.084 35.9686 25.94L38.5286 25.732V25.476C38.5286 23.956 37.6166 23.476 36.4806 23.476C35.1366 23.476 34.3366 24.084 34.3366 25.124H33.3286C33.3286 23.556 34.6086 22.548 36.5126 22.548C38.3046 22.548 39.6166 23.444 39.6166 25.492V30.5H38.6886L38.5446 29.14C38.0646 30.116 37.0086 30.692 35.6966 30.692ZM35.9526 29.796C37.5846 29.796 38.5286 28.66 38.5286 26.98V26.564L36.2406 26.74C34.7846 26.868 34.1926 27.508 34.1926 28.372C34.1926 29.316 34.8966 29.796 35.9526 29.796ZM46.952 22.756H48.056V30.5H47.096L46.952 29.188C46.52 30.084 45.448 30.692 44.232 30.692C42.408 30.692 41.416 29.444 41.416 27.556V22.74H42.536V27.204C42.536 29.044 43.352 29.7 44.584 29.7C46.072 29.7 46.952 28.708 46.952 26.868V22.756ZM51.1398 30.5H50.0358V22.756H50.9958L51.1558 24.1C51.6678 23.108 52.6918 22.548 53.8118 22.548C55.9398 22.548 56.8198 23.812 56.8198 25.764V30.5H55.7158V26.004C55.7158 24.196 54.8998 23.556 53.6198 23.556C52.0358 23.556 51.1398 24.708 51.1398 26.452V30.5ZM58.1561 26.644C58.1561 24.212 59.6441 22.548 61.9001 22.548C63.6921 22.548 65.0041 23.588 65.3081 25.188H64.2041C63.9161 24.116 62.9881 23.524 61.9161 23.524C60.3481 23.524 59.2441 24.724 59.2441 26.628C59.2441 28.468 60.2681 29.7 61.8361 29.7C62.9881 29.7 63.9161 29.06 64.2201 28.068H65.3401C64.9721 29.652 63.5961 30.692 61.8361 30.692C59.6441 30.692 58.1561 29.076 58.1561 26.644ZM67.7966 30.484H66.6926V18.836H67.7966V24.1C68.2926 23.172 69.2366 22.548 70.5326 22.548C72.5646 22.548 73.4766 23.812 73.4766 25.764V30.5H72.3726V26.004C72.3726 24.196 71.5246 23.556 70.3246 23.556C68.6606 23.556 67.7966 24.788 67.7966 26.276V30.484ZM75.357 33.876V22.756H76.317L76.429 24.324C76.973 23.124 78.061 22.548 79.357 22.548C81.597 22.548 82.941 24.26 82.941 26.596C82.941 28.932 81.645 30.692 79.357 30.692C78.045 30.692 77.005 30.132 76.461 29.012V33.876H75.357ZM76.477 26.628C76.477 28.404 77.469 29.7 79.165 29.7C80.845 29.7 81.821 28.404 81.821 26.628C81.821 24.836 80.845 23.556 79.165 23.556C77.469 23.556 76.477 24.836 76.477 26.628ZM86.6047 30.692C84.9567 30.692 83.9807 29.764 83.9807 28.404C83.9807 26.98 85.0687 26.084 86.8767 25.94L89.4367 25.732V25.476C89.4367 23.956 88.5247 23.476 87.3887 23.476C86.0447 23.476 85.2447 24.084 85.2447 25.124H84.2367C84.2367 23.556 85.5167 22.548 87.4207 22.548C89.2127 22.548 90.5247 23.444 90.5247 25.492V30.5H89.5967L89.4527 29.14C88.9727 30.116 87.9167 30.692 86.6047 30.692ZM86.8607 29.796C88.4927 29.796 89.4367 28.66 89.4367 26.98V26.564L87.1487 26.74C85.6927 26.868 85.1007 27.508 85.1007 28.372C85.1007 29.316 85.8047 29.796 86.8607 29.796ZM95.4601 30.692C93.2041 30.692 91.8761 28.964 91.8761 26.644C91.8761 24.308 93.2041 22.548 95.5081 22.548C96.7881 22.548 97.8121 23.108 98.3561 24.228V18.836H99.4601V30.5H98.5001L98.3881 28.916C97.8441 30.116 96.7561 30.692 95.4601 30.692ZM95.6521 29.684C97.3481 29.684 98.3401 28.404 98.3401 26.612C98.3401 24.836 97.3481 23.54 95.6521 23.54C93.9721 23.54 92.9961 24.836 92.9961 26.612C92.9961 28.404 93.9721 29.684 95.6521 29.684Z" fill="#E6ECFF" fill-opacity="0.7"/>
<defs>
<radialGradient id="paint0_radial_100_987" cx="0" cy="0" r="1" gradientUnits="userSpaceOnUse" gradientTransform="translate(17 2.33483) scale(121.25 57.0285)">
<stop stop-color="#121426" stop-opacity="0.8"/>
<stop offset="1" stop-opacity="0.8"/>
</radialGradient>
<linearGradient id="paint1_linear_100_987" x1="63" y1="0.5" x2="63" y2="50.09" gradientUnits="userSpaceOnUse">
<stop stop-color="white" stop-opacity="0.5"/>
<stop offset="1" stop-color="#999999" stop-opacity="0.07"/>
</linearGradient>
</defs>
</svg>
