<svg width="156" height="51" viewBox="0 0 156 51" fill="none" xmlns="http://www.w3.org/2000/svg">
<rect x="1" y="1" width="154" height="48.59" rx="24.295" fill="url(#paint0_radial_100_981)"/>
<rect x="1" y="1" width="154" height="48.59" rx="24.295" stroke="url(#paint1_linear_100_981)"/>
<path d="M27.044 30.5H25.892V19.044H27.06L33.364 28.58V19.044H34.5V30.5H33.364L27.044 20.964V30.5ZM38.9623 30.692C37.3143 30.692 36.3383 29.764 36.3383 28.404C36.3383 26.98 37.4263 26.084 39.2343 25.94L41.7943 25.732V25.476C41.7943 23.956 40.8823 23.476 39.7463 23.476C38.4023 23.476 37.6023 24.084 37.6023 25.124H36.5943C36.5943 23.556 37.8743 22.548 39.7783 22.548C41.5703 22.548 42.8823 23.444 42.8823 25.492V30.5H41.9543L41.8103 29.14C41.3303 30.116 40.2743 30.692 38.9623 30.692ZM39.2183 29.796C40.8503 29.796 41.7943 28.66 41.7943 26.98V26.564L39.5063 26.74C38.0503 26.868 37.4583 27.508 37.4583 28.372C37.4583 29.316 38.1623 29.796 39.2183 29.796ZM45.8816 30.5H44.7776V22.756H45.7376L45.8656 23.86C46.2496 23.044 47.1136 22.548 48.2016 22.548C49.4176 22.548 50.3296 23.188 50.6976 24.196C51.0496 23.188 51.9936 22.548 53.2416 22.548C54.9216 22.548 56.0256 23.636 56.0256 25.428V30.5H54.9536V25.652C54.9536 24.324 54.2176 23.54 53.0336 23.54C51.7376 23.54 50.9696 24.516 50.9696 25.716V30.5H49.8816V25.636C49.8816 24.324 49.1296 23.556 47.9616 23.556C46.6656 23.556 45.8816 24.516 45.8816 25.7V30.5ZM58.4704 20.628C58.0224 20.628 57.6544 20.26 57.6544 19.812C57.6544 19.364 58.0224 18.98 58.4704 18.98C58.9184 18.98 59.3024 19.364 59.3024 19.812C59.3024 20.26 58.9184 20.628 58.4704 20.628ZM57.9264 30.5V22.756H59.0304V30.5H57.9264ZM62.1166 30.5H61.0126V22.756H61.9726L62.1326 24.1C62.6446 23.108 63.6686 22.548 64.7886 22.548C66.9166 22.548 67.7966 23.812 67.7966 25.764V30.5H66.6926V26.004C66.6926 24.196 65.8766 23.556 64.5966 23.556C63.0126 23.556 62.1166 24.708 62.1166 26.452V30.5ZM69.149 26.404C69.149 24.292 70.509 22.548 72.781 22.548C74.125 22.548 75.149 23.172 75.645 24.308L75.757 22.756H76.717V30.26C76.717 32.564 75.245 34.068 72.973 34.068C70.989 34.068 69.597 32.948 69.293 31.076H70.397C70.637 32.324 71.597 33.06 72.989 33.06C74.573 33.06 75.629 31.988 75.629 30.372V28.532C75.101 29.62 74.029 30.26 72.701 30.26C70.493 30.26 69.149 28.516 69.149 26.404ZM70.253 26.388C70.253 27.972 71.229 29.268 72.861 29.268C74.541 29.268 75.533 28.052 75.533 26.388C75.533 24.74 74.573 23.524 72.877 23.524C71.213 23.524 70.253 24.82 70.253 26.388ZM82.3702 22.02C82.3702 20.1 83.9062 18.836 86.2102 18.836C88.2742 18.836 89.6342 19.988 89.8102 21.908H88.6422C88.5142 20.612 87.6342 19.876 86.1942 19.876C84.5782 19.876 83.5222 20.708 83.5222 22.004C83.5222 23.012 84.1142 23.652 85.3142 23.956L87.2822 24.436C89.0742 24.868 90.0022 25.892 90.0022 27.444C90.0022 29.428 88.4662 30.692 86.0982 30.692C83.8742 30.692 82.3702 29.524 82.2262 27.652H83.4102C83.4742 28.852 84.5302 29.636 86.0982 29.636C87.7782 29.636 88.8502 28.82 88.8502 27.508C88.8502 26.484 88.2742 25.812 87.0422 25.524L85.1062 25.044C83.3142 24.612 82.3702 23.588 82.3702 22.02ZM94.7619 30.692C92.4899 30.692 90.9699 29.06 90.9699 26.628C90.9699 24.212 92.4739 22.548 94.6819 22.548C96.7779 22.548 98.2019 24.036 98.2019 26.228V26.772H92.0419C92.1219 28.66 93.1139 29.748 94.7779 29.748C96.0419 29.748 96.8579 29.204 97.1459 28.18H98.2019C97.7859 29.812 96.5859 30.692 94.7619 30.692ZM94.6819 23.492C93.2259 23.492 92.2659 24.452 92.0739 25.972H97.0979C97.0979 24.484 96.1379 23.492 94.6819 23.492ZM103.695 22.66V23.652H103.087C101.663 23.652 100.751 24.612 100.751 26.084V30.5H99.647V22.756H100.687L100.767 23.956C101.071 23.124 101.887 22.58 102.975 22.58C103.215 22.58 103.423 22.596 103.695 22.66ZM107.237 30.5L104.069 22.756H105.253L107.253 27.748C107.461 28.308 107.669 28.836 107.813 29.348C107.957 28.82 108.165 28.308 108.389 27.748L110.421 22.756H111.557L108.341 30.5H107.237ZM113.082 20.628C112.634 20.628 112.266 20.26 112.266 19.812C112.266 19.364 112.634 18.98 113.082 18.98C113.53 18.98 113.914 19.364 113.914 19.812C113.914 20.26 113.53 20.628 113.082 20.628ZM112.538 30.5V22.756H113.642V30.5H112.538ZM115.081 26.644C115.081 24.212 116.569 22.548 118.825 22.548C120.617 22.548 121.929 23.588 122.233 25.188H121.129C120.841 24.116 119.913 23.524 118.841 23.524C117.273 23.524 116.169 24.724 116.169 26.628C116.169 28.468 117.193 29.7 118.761 29.7C119.913 29.7 120.841 29.06 121.145 28.068H122.265C121.897 29.652 120.521 30.692 118.761 30.692C116.569 30.692 115.081 29.076 115.081 26.644ZM126.865 30.692C124.593 30.692 123.073 29.06 123.073 26.628C123.073 24.212 124.577 22.548 126.785 22.548C128.881 22.548 130.305 24.036 130.305 26.228V26.772H124.145C124.225 28.66 125.217 29.748 126.881 29.748C128.145 29.748 128.961 29.204 129.249 28.18H130.305C129.889 29.812 128.689 30.692 126.865 30.692ZM126.785 23.492C125.329 23.492 124.369 24.452 124.177 25.972H129.201C129.201 24.484 128.241 23.492 126.785 23.492Z" fill="#E6ECFF" fill-opacity="0.7"/>
<defs>
<radialGradient id="paint0_radial_100_981" cx="0" cy="0" r="1" gradientUnits="userSpaceOnUse" gradientTransform="translate(20.96 2.33483) scale(150.35 57.0285)">
<stop stop-color="#121426" stop-opacity="0.8"/>
<stop offset="1" stop-opacity="0.8"/>
</radialGradient>
<linearGradient id="paint1_linear_100_981" x1="78" y1="0.5" x2="78" y2="50.09" gradientUnits="userSpaceOnUse">
<stop stop-color="white" stop-opacity="0.5"/>
<stop offset="1" stop-color="#999999" stop-opacity="0.07"/>
</linearGradient>
</defs>
</svg>
