<svg width="155" height="51" viewBox="0 0 155 51" fill="none" xmlns="http://www.w3.org/2000/svg">
<rect x="1" y="1" width="153" height="48.59" rx="24.295" fill="url(#paint0_radial_74_5133)"/>
<rect x="1" y="1" width="153" height="48.59" rx="24.295" stroke="url(#paint1_linear_74_5133)"/>
<path d="M27.044 30.5H25.892V19.044H27.06L33.364 28.58V19.044H34.5V30.5H33.364L27.044 20.964V30.5ZM42.8183 25.46H38.1303V30.5H36.9783V19.044H43.7303V20.1H38.1303V24.42H42.8183V25.46ZM44.1458 20.1V19.044H52.3538V20.1H48.8178V30.5H47.6658V20.1H44.1458ZM51.8329 28.324H52.8889C52.8889 29.22 53.5609 29.78 54.6489 29.78C55.8489 29.78 56.5529 29.268 56.5529 28.436C56.5529 27.796 56.2329 27.428 55.3209 27.204L53.9929 26.868C52.6489 26.532 51.9929 25.828 51.9929 24.772C51.9929 23.412 53.1289 22.548 54.7929 22.548C56.4249 22.548 57.4809 23.444 57.5289 24.884H56.4569C56.4249 23.988 55.8009 23.46 54.7609 23.46C53.6729 23.46 53.0649 23.924 53.0649 24.756C53.0649 25.348 53.4809 25.764 54.3289 25.972L55.6569 26.308C57.0009 26.644 57.6089 27.268 57.6089 28.388C57.6089 29.78 56.4249 30.692 54.6649 30.692C52.9209 30.692 51.8329 29.764 51.8329 28.324ZM70.9795 30.5L69.9555 29.316C69.0595 30.212 67.8115 30.708 66.3075 30.708C63.8915 30.708 62.3235 29.476 62.3235 27.588C62.3235 26.132 63.1875 25.06 65.2515 23.94C64.2115 22.724 63.7955 22.036 63.7955 21.188C63.7955 19.812 64.8355 18.852 66.3875 18.852C67.8595 18.852 68.8675 19.748 68.8675 21.092C68.8675 22.228 68.2755 23.108 66.7555 24.132L69.8755 27.732C70.1955 27.06 70.3715 26.228 70.3715 25.268H71.4435C71.4435 26.548 71.1395 27.652 70.5795 28.532L72.2915 30.5H70.9795ZM66.1635 23.444L66.1795 23.46C67.2995 22.756 67.8115 22.02 67.8115 21.124C67.8115 20.292 67.2675 19.78 66.3715 19.78C65.4435 19.78 64.8675 20.324 64.8675 21.188C64.8675 21.764 65.1235 22.244 66.1635 23.444ZM63.4595 27.524C63.4595 28.916 64.5475 29.748 66.3715 29.748C67.6355 29.748 68.6275 29.348 69.3155 28.58L65.8275 24.596C64.0995 25.556 63.4595 26.356 63.4595 27.524ZM81.8426 19.94C79.2026 19.94 77.5386 21.892 77.5386 24.82C77.5386 27.796 79.2986 29.604 81.8746 29.604C83.7946 29.604 85.6666 28.676 85.6666 25.924V25.332H81.5226V24.308H86.7546V30.516H85.8426L85.7306 28.692C85.1226 29.828 83.6826 30.692 81.8266 30.692C78.5786 30.692 76.3386 28.356 76.3386 24.82C76.3386 21.316 78.5786 18.852 81.8586 18.852C84.2746 18.852 86.1466 20.228 86.5946 22.308H85.3466C84.8666 20.74 83.5226 19.94 81.8426 19.94ZM90.7066 30.692C89.0586 30.692 88.0826 29.764 88.0826 28.404C88.0826 26.98 89.1706 26.084 90.9786 25.94L93.5386 25.732V25.476C93.5386 23.956 92.6266 23.476 91.4906 23.476C90.1466 23.476 89.3466 24.084 89.3466 25.124H88.3386C88.3386 23.556 89.6186 22.548 91.5226 22.548C93.3146 22.548 94.6266 23.444 94.6266 25.492V30.5H93.6986L93.5546 29.14C93.0746 30.116 92.0186 30.692 90.7066 30.692ZM90.9626 29.796C92.5946 29.796 93.5386 28.66 93.5386 26.98V26.564L91.2506 26.74C89.7946 26.868 89.2026 27.508 89.2026 28.372C89.2026 29.316 89.9066 29.796 90.9626 29.796ZM97.626 30.5H96.522V22.756H97.482L97.61 23.86C97.994 23.044 98.858 22.548 99.946 22.548C101.162 22.548 102.074 23.188 102.442 24.196C102.794 23.188 103.738 22.548 104.986 22.548C106.666 22.548 107.77 23.636 107.77 25.428V30.5H106.698V25.652C106.698 24.324 105.962 23.54 104.778 23.54C103.482 23.54 102.714 24.516 102.714 25.716V30.5H101.626V25.636C101.626 24.324 100.874 23.556 99.706 23.556C98.41 23.556 97.626 24.516 97.626 25.7V30.5ZM110.215 20.628C109.767 20.628 109.399 20.26 109.399 19.812C109.399 19.364 109.767 18.98 110.215 18.98C110.663 18.98 111.047 19.364 111.047 19.812C111.047 20.26 110.663 20.628 110.215 20.628ZM109.671 30.5V22.756H110.775V30.5H109.671ZM113.861 30.5H112.757V22.756H113.717L113.877 24.1C114.389 23.108 115.413 22.548 116.533 22.548C118.661 22.548 119.541 23.812 119.541 25.764V30.5H118.437V26.004C118.437 24.196 117.621 23.556 116.341 23.556C114.757 23.556 113.861 24.708 113.861 26.452V30.5ZM120.893 26.404C120.893 24.292 122.253 22.548 124.525 22.548C125.869 22.548 126.893 23.172 127.389 24.308L127.501 22.756H128.461V30.26C128.461 32.564 126.989 34.068 124.717 34.068C122.733 34.068 121.341 32.948 121.037 31.076H122.141C122.381 32.324 123.341 33.06 124.733 33.06C126.317 33.06 127.373 31.988 127.373 30.372V28.532C126.845 29.62 125.773 30.26 124.445 30.26C122.237 30.26 120.893 28.516 120.893 26.404ZM121.997 26.388C121.997 27.972 122.973 29.268 124.605 29.268C126.285 29.268 127.277 28.052 127.277 26.388C127.277 24.74 126.317 23.524 124.621 23.524C122.957 23.524 121.997 24.82 121.997 26.388Z" fill="#E6ECFF" fill-opacity="0.7"/>
<defs>
<radialGradient id="paint0_radial_74_5133" cx="0" cy="0" r="1" gradientUnits="userSpaceOnUse" gradientTransform="translate(20.828 2.33483) scale(149.38 57.0285)">
<stop stop-color="#121426" stop-opacity="0.8"/>
<stop offset="1" stop-opacity="0.8"/>
</radialGradient>
<linearGradient id="paint1_linear_74_5133" x1="77.5" y1="0.5" x2="77.5" y2="50.09" gradientUnits="userSpaceOnUse">
<stop stop-color="white" stop-opacity="0.5"/>
<stop offset="1" stop-color="#999999" stop-opacity="0.07"/>
</linearGradient>
</defs>
</svg>
