<svg width="139" height="51" viewBox="0 0 139 51" fill="none" xmlns="http://www.w3.org/2000/svg">
<rect x="1" y="1" width="137" height="48.59" rx="24.295" fill="url(#paint0_radial_74_5151)"/>
<rect x="1" y="1" width="137" height="48.59" rx="24.295" stroke="url(#paint1_linear_74_5151)"/>
<path d="M36.1 24.772C36.1 28.244 33.844 30.692 30.644 30.692C27.428 30.692 25.188 28.244 25.188 24.772C25.188 21.3 27.444 18.836 30.644 18.836C33.86 18.836 36.1 21.284 36.1 24.772ZM34.916 24.772C34.916 21.908 33.172 19.956 30.644 19.956C28.116 19.956 26.388 21.908 26.388 24.772C26.388 27.636 28.116 29.588 30.644 29.588C33.172 29.588 34.916 27.62 34.916 24.772ZM37.6289 33.876V22.756H38.5889L38.7009 24.324C39.2449 23.124 40.3329 22.548 41.6289 22.548C43.8689 22.548 45.2129 24.26 45.2129 26.596C45.2129 28.932 43.9169 30.692 41.6289 30.692C40.3169 30.692 39.2769 30.132 38.7329 29.012V33.876H37.6289ZM38.7489 26.628C38.7489 28.404 39.7409 29.7 41.4369 29.7C43.1169 29.7 44.0929 28.404 44.0929 26.628C44.0929 24.836 43.1169 23.556 41.4369 23.556C39.7409 23.556 38.7489 24.836 38.7489 26.628ZM49.9006 30.692C47.6286 30.692 46.1086 29.06 46.1086 26.628C46.1086 24.212 47.6126 22.548 49.8206 22.548C51.9166 22.548 53.3406 24.036 53.3406 26.228V26.772H47.1806C47.2606 28.66 48.2526 29.748 49.9166 29.748C51.1806 29.748 51.9966 29.204 52.2846 28.18H53.3406C52.9246 29.812 51.7246 30.692 49.9006 30.692ZM49.8206 23.492C48.3646 23.492 47.4046 24.452 47.2126 25.972H52.2366C52.2366 24.484 51.2766 23.492 49.8206 23.492ZM55.8898 30.5H54.7858V22.756H55.7458L55.9058 24.1C56.4178 23.108 57.4418 22.548 58.5618 22.548C60.6898 22.548 61.5698 23.812 61.5698 25.764V30.5H60.4658V26.004C60.4658 24.196 59.6498 23.556 58.3698 23.556C56.7858 23.556 55.8898 24.708 55.8898 26.452V30.5ZM67.1196 22.02C67.1196 20.1 68.6556 18.836 70.9596 18.836C73.0236 18.836 74.3836 19.988 74.5596 21.908H73.3916C73.2636 20.612 72.3836 19.876 70.9436 19.876C69.3276 19.876 68.2716 20.708 68.2716 22.004C68.2716 23.012 68.8636 23.652 70.0636 23.956L72.0316 24.436C73.8236 24.868 74.7516 25.892 74.7516 27.444C74.7516 29.428 73.2156 30.692 70.8476 30.692C68.6236 30.692 67.1196 29.524 66.9756 27.652H68.1596C68.2236 28.852 69.2796 29.636 70.8476 29.636C72.5276 29.636 73.5996 28.82 73.5996 27.508C73.5996 26.484 73.0236 25.812 71.7916 25.524L69.8556 25.044C68.0636 24.612 67.1196 23.588 67.1196 22.02ZM75.7193 26.628C75.7193 24.26 77.3833 22.548 79.6553 22.548C81.9273 22.548 83.5913 24.26 83.5913 26.628C83.5913 28.98 81.9273 30.692 79.6553 30.692C77.3833 30.692 75.7193 28.98 75.7193 26.628ZM76.8393 26.612C76.8393 28.436 77.9913 29.7 79.6553 29.7C81.3033 29.7 82.4713 28.436 82.4713 26.612C82.4713 24.82 81.3033 23.54 79.6553 23.54C77.9913 23.54 76.8393 24.82 76.8393 26.612ZM90.2895 22.756H91.3935V30.5H90.4335L90.2895 29.188C89.8575 30.084 88.7855 30.692 87.5695 30.692C85.7455 30.692 84.7535 29.444 84.7535 27.556V22.74H85.8735V27.204C85.8735 29.044 86.6895 29.7 87.9215 29.7C89.4095 29.7 90.2895 28.708 90.2895 26.868V22.756ZM97.4213 22.66V23.652H96.8133C95.3893 23.652 94.4773 24.612 94.4773 26.084V30.5H93.3733V22.756H94.4133L94.4933 23.956C94.7973 23.124 95.6133 22.58 96.7013 22.58C96.9413 22.58 97.1493 22.596 97.4213 22.66ZM97.728 26.644C97.728 24.212 99.216 22.548 101.472 22.548C103.264 22.548 104.576 23.588 104.88 25.188H103.776C103.488 24.116 102.56 23.524 101.488 23.524C99.92 23.524 98.816 24.724 98.816 26.628C98.816 28.468 99.84 29.7 101.408 29.7C102.56 29.7 103.488 29.06 103.792 28.068H104.912C104.544 29.652 103.168 30.692 101.408 30.692C99.216 30.692 97.728 29.076 97.728 26.644ZM109.513 30.692C107.241 30.692 105.721 29.06 105.721 26.628C105.721 24.212 107.225 22.548 109.433 22.548C111.529 22.548 112.953 24.036 112.953 26.228V26.772H106.793C106.873 28.66 107.865 29.748 109.529 29.748C110.793 29.748 111.609 29.204 111.897 28.18H112.953C112.537 29.812 111.337 30.692 109.513 30.692ZM109.433 23.492C107.977 23.492 107.017 24.452 106.825 25.972H111.849C111.849 24.484 110.889 23.492 109.433 23.492Z" fill="#E6ECFF" fill-opacity="0.7"/>
<defs>
<radialGradient id="paint0_radial_74_5151" cx="0" cy="0" r="1" gradientUnits="userSpaceOnUse" gradientTransform="translate(18.716 2.33483) scale(133.86 57.0285)">
<stop stop-color="#121426" stop-opacity="0.8"/>
<stop offset="1" stop-opacity="0.8"/>
</radialGradient>
<linearGradient id="paint1_linear_74_5151" x1="69.5" y1="0.5" x2="69.5" y2="50.09" gradientUnits="userSpaceOnUse">
<stop stop-color="white" stop-opacity="0.5"/>
<stop offset="1" stop-color="#999999" stop-opacity="0.07"/>
</linearGradient>
</defs>
</svg>
