<svg width="98" height="51" viewBox="0 0 98 51" fill="none" xmlns="http://www.w3.org/2000/svg">
<rect x="1" y="1" width="96" height="48.59" rx="24.295" fill="url(#paint0_radial_74_5145)"/>
<rect x="1" y="1" width="96" height="48.59" rx="24.295" stroke="url(#paint1_linear_74_5145)"/>
<path d="M24.692 20.1V19.044H32.9V20.1H29.364V30.5H28.212V20.1H24.692ZM32.1942 26.628C32.1942 24.26 33.8582 22.548 36.1302 22.548C38.4023 22.548 40.0663 24.26 40.0663 26.628C40.0663 28.98 38.4023 30.692 36.1302 30.692C33.8582 30.692 32.1942 28.98 32.1942 26.628ZM33.3142 26.612C33.3142 28.436 34.4662 29.7 36.1302 29.7C37.7783 29.7 38.9462 28.436 38.9462 26.612C38.9462 24.82 37.7783 23.54 36.1302 23.54C34.4662 23.54 33.3142 24.82 33.3142 26.612ZM40.968 26.628C40.968 24.26 42.632 22.548 44.904 22.548C47.176 22.548 48.84 24.26 48.84 26.628C48.84 28.98 47.176 30.692 44.904 30.692C42.632 30.692 40.968 28.98 40.968 26.628ZM42.088 26.612C42.088 28.436 43.24 29.7 44.904 29.7C46.552 29.7 47.72 28.436 47.72 26.612C47.72 24.82 46.552 23.54 44.904 23.54C43.24 23.54 42.088 24.82 42.088 26.612ZM51.4378 30.5H50.3338V18.836H51.4378V30.5ZM54.0097 20.628C53.5617 20.628 53.1937 20.26 53.1937 19.812C53.1937 19.364 53.5617 18.98 54.0097 18.98C54.4577 18.98 54.8417 19.364 54.8417 19.812C54.8417 20.26 54.4577 20.628 54.0097 20.628ZM53.4657 30.5V22.756H54.5697V30.5H53.4657ZM57.656 30.5H56.552V22.756H57.512L57.672 24.1C58.184 23.108 59.208 22.548 60.328 22.548C62.456 22.548 63.336 23.812 63.336 25.764V30.5H62.232V26.004C62.232 24.196 61.416 23.556 60.136 23.556C58.552 23.556 57.656 24.708 57.656 26.452V30.5ZM64.6884 26.404C64.6884 24.292 66.0484 22.548 68.3204 22.548C69.6644 22.548 70.6884 23.172 71.1844 24.308L71.2964 22.756H72.2564V30.26C72.2564 32.564 70.7844 34.068 68.5124 34.068C66.5284 34.068 65.1364 32.948 64.8324 31.076H65.9364C66.1764 32.324 67.1364 33.06 68.5284 33.06C70.1124 33.06 71.1684 31.988 71.1684 30.372V28.532C70.6404 29.62 69.5684 30.26 68.2404 30.26C66.0324 30.26 64.6884 28.516 64.6884 26.404ZM65.7924 26.388C65.7924 27.972 66.7684 29.268 68.4004 29.268C70.0804 29.268 71.0724 28.052 71.0724 26.388C71.0724 24.74 70.1124 23.524 68.4164 23.524C66.7524 23.524 65.7924 24.82 65.7924 26.388Z" fill="#E6ECFF" fill-opacity="0.7"/>
<defs>
<radialGradient id="paint0_radial_74_5145" cx="0" cy="0" r="1" gradientUnits="userSpaceOnUse" gradientTransform="translate(13.304 2.33483) scale(94.09 57.0285)">
<stop stop-color="#121426" stop-opacity="0.8"/>
<stop offset="1" stop-opacity="0.8"/>
</radialGradient>
<linearGradient id="paint1_linear_74_5145" x1="49" y1="0.5" x2="49" y2="50.09" gradientUnits="userSpaceOnUse">
<stop stop-color="white" stop-opacity="0.5"/>
<stop offset="1" stop-color="#999999" stop-opacity="0.07"/>
</linearGradient>
</defs>
</svg>
