<svg width="55" height="55" viewBox="0 0 55 55" fill="none" xmlns="http://www.w3.org/2000/svg">
<g clip-path="url(#clip0_110_469)">
<rect width="55" height="55" rx="8" fill="url(#paint0_linear_110_469)"/>
<rect width="55" height="55" rx="8" fill="url(#paint1_linear_110_469)"/>
<rect x="1.5" y="1.5" width="52" height="52" rx="8" fill="black"/>
<path d="M38.6902 22.2089L36.361 20.1861C34.6827 18.7287 34.0249 17.9446 33.1161 18.2218C31.9829 18.5674 32.356 20.7481 32.356 21.4843C30.5941 21.4843 28.7624 21.3488 27.0257 21.6311C21.2927 22.5632 19.5 26.6421 19.5 31.0367C21.1226 30.042 22.7437 28.9328 24.6939 28.4718C27.1283 27.8964 29.8471 28.171 32.356 28.171C32.356 28.9071 31.9829 31.0879 33.1161 31.4334C34.1459 31.7474 34.6827 30.9266 36.361 29.4691L38.6902 27.4464C40.119 26.2056 40.8333 25.5853 40.8333 24.8276C40.8333 24.07 40.119 23.4496 38.6902 22.2089Z" stroke="white" stroke-width="1.8" stroke-linecap="round" stroke-linejoin="round"/>
<path d="M25.5902 15.5C20.4432 15.5093 17.748 15.6354 16.0256 17.3543C14.1667 19.2094 14.1667 22.195 14.1667 28.1663C14.1667 34.1376 14.1667 37.1232 16.0256 38.9783C17.8844 40.8333 20.8761 40.8333 26.8595 40.8333C32.8429 40.8333 35.8346 40.8333 37.6934 38.9783C38.9875 37.6867 39.3807 35.8471 39.5001 32.8333" stroke="white" stroke-width="1.8" stroke-linecap="round" stroke-linejoin="round"/>
</g>
<defs>
<linearGradient id="paint0_linear_110_469" x1="60.0536" y1="47.6009" x2="-3.0666" y2="4.48991" gradientUnits="userSpaceOnUse">
<stop stop-color="#4DA2FF"/>
<stop offset="0.25" stop-color="#4DA2FF" stop-opacity="0"/>
</linearGradient>
<linearGradient id="paint1_linear_110_469" x1="1.89615" y1="-1.51281" x2="50.1018" y2="58.9079" gradientUnits="userSpaceOnUse">
<stop stop-color="#4DA2FF"/>
<stop offset="0.25" stop-color="#4DA2FF" stop-opacity="0"/>
</linearGradient>
<clipPath id="clip0_110_469">
<rect width="55" height="55" rx="8" fill="white"/>
</clipPath>
</defs>
</svg>
