<svg width="55" height="55" viewBox="0 0 55 55" fill="none" xmlns="http://www.w3.org/2000/svg">
<g clip-path="url(#clip0_112_580)">
<rect width="55" height="55" rx="8" fill="url(#paint0_linear_112_580)"/>
<rect width="55" height="55" rx="8" fill="url(#paint1_linear_112_580)"/>
<rect x="1.5" y="1.5" width="52" height="52" rx="8" fill="black"/>
<path d="M30.0879 25.356L40.2139 13.5H37.8139L29.0239 23.794L21.9999 13.5H13.8999L24.5199 29.068L13.8999 41.5H16.2999L25.5839 30.628L33.0019 41.5H41.1019L30.0879 25.356ZM26.8019 29.204L25.7259 27.654L17.1639 15.32H20.8499L27.7579 25.274L28.8339 26.824L37.8159 39.764H34.1299L26.8019 29.204Z" fill="white"/>
</g>
<defs>
<linearGradient id="paint0_linear_112_580" x1="60.0536" y1="47.6009" x2="-3.0666" y2="4.48991" gradientUnits="userSpaceOnUse">
<stop stop-color="#4DA2FF"/>
<stop offset="0.25" stop-color="#4DA2FF" stop-opacity="0"/>
</linearGradient>
<linearGradient id="paint1_linear_112_580" x1="1.89615" y1="-1.51281" x2="50.1018" y2="58.9079" gradientUnits="userSpaceOnUse">
<stop stop-color="#4DA2FF"/>
<stop offset="0.25" stop-color="#4DA2FF" stop-opacity="0"/>
</linearGradient>
<clipPath id="clip0_112_580">
<rect width="55" height="55" rx="8" fill="white"/>
</clipPath>
</defs>
</svg>
